STARTFONT 2.1
FONT --Jvgfont-Regular-R-Normal--16-100-115-115-C-80-JIX-X0201
SIZE 10 115 115
FONTBOUNDINGBOX 8 16 0 0
METRICSSET 2
STARTPROPERTIES 21
FONT_ASCENT 16
FONT_DESCENT 0
PIXEL_SIZE 16
RESOLUTION_X 115
RESOLUTION_Y 115
POINT_SIZE 100
FACE_NAME "System"
FOUNDRY ""
FAMILY_NAME "Jvgfont"
WEIGHT_NAME "Regular"
RELATIVE_WEIGHT 50
SLANT "R"
SPACING "C"
SETWIDTH_NAME "Normal"
RELATIVE_SETWIDTH 50
ADD_STYLE_NAME ""
AVERAGE_WIDTH 80
CHARSET_REGISTRY "JIX"
CHARSET_ENCODING "X0201"
SOURCE_URL "https://www.seasip.info/Gem/Software/v2jdrv.zip"
GDOS "font-id=1 left-offset=0 right-offset=7"
ENDPROPERTIES
CHARS 256
STARTCHAR char00
ENCODING 0
SWIDTH 501 0
DWIDTH 8 0
BBX 8 16 0 0
VVECTOR 4 16
SWIDTH1 0 -1002
DWIDTH1 0 -16
BITMAP 
00
00
00
00
00
00
00
00
00
00
00
00
00
00
00
00
ENDCHAR
STARTCHAR smileface
ENCODING 1
SWIDTH 501 0
DWIDTH 8 0
BBX 8 16 0 0
VVECTOR 4 16
SWIDTH1 0 -1002
DWIDTH1 0 -16
BITMAP 
00
00
7E
81
81
A5
81
81
BD
99
81
7E
00
00
00
00
ENDCHAR
STARTCHAR invsmileface
ENCODING 2
SWIDTH 501 0
DWIDTH 8 0
BBX 8 16 0 0
VVECTOR 4 16
SWIDTH1 0 -1002
DWIDTH1 0 -16
BITMAP 
00
00
7E
FF
FF
DB
FF
FF
C3
E7
FF
7E
00
00
00
00
ENDCHAR
STARTCHAR heart
ENCODING 3
SWIDTH 501 0
DWIDTH 8 0
BBX 8 16 0 0
VVECTOR 4 16
SWIDTH1 0 -1002
DWIDTH1 0 -16
BITMAP 
00
00
00
66
FF
FF
FF
FF
7E
3C
18
00
00
00
00
00
ENDCHAR
STARTCHAR diamond
ENCODING 4
SWIDTH 501 0
DWIDTH 8 0
BBX 8 16 0 0
VVECTOR 4 16
SWIDTH1 0 -1002
DWIDTH1 0 -16
BITMAP 
00
00
00
08
1C
3E
7F
3E
1C
08
00
00
00
00
00
00
ENDCHAR
STARTCHAR club
ENCODING 5
SWIDTH 501 0
DWIDTH 8 0
BBX 8 16 0 0
VVECTOR 4 16
SWIDTH1 0 -1002
DWIDTH1 0 -16
BITMAP 
00
00
18
3C
3C
3C
E7
E7
E7
18
18
3C
00
00
00
00
ENDCHAR
STARTCHAR spade
ENCODING 6
SWIDTH 501 0
DWIDTH 8 0
BBX 8 16 0 0
VVECTOR 4 16
SWIDTH1 0 -1002
DWIDTH1 0 -16
BITMAP 
00
00
18
3C
7E
FF
FF
FF
7E
18
18
3C
00
00
00
00
ENDCHAR
STARTCHAR bullet
ENCODING 7
SWIDTH 501 0
DWIDTH 8 0
BBX 8 16 0 0
VVECTOR 4 16
SWIDTH1 0 -1002
DWIDTH1 0 -16
BITMAP 
00
00
00
00
00
18
3C
3C
18
00
00
00
00
00
00
00
ENDCHAR
STARTCHAR invbullet
ENCODING 8
SWIDTH 501 0
DWIDTH 8 0
BBX 8 16 0 0
VVECTOR 4 16
SWIDTH1 0 -1002
DWIDTH1 0 -16
BITMAP 
FF
FF
FF
FF
FF
E7
C3
C3
E7
FF
FF
FF
FF
FF
FF
FF
ENDCHAR
STARTCHAR circle
ENCODING 9
SWIDTH 501 0
DWIDTH 8 0
BBX 8 16 0 0
VVECTOR 4 16
SWIDTH1 0 -1002
DWIDTH1 0 -16
BITMAP 
00
00
00
00
3C
66
42
42
66
3C
00
00
00
00
00
00
ENDCHAR
STARTCHAR invcircle
ENCODING 10
SWIDTH 501 0
DWIDTH 8 0
BBX 8 16 0 0
VVECTOR 4 16
SWIDTH1 0 -1002
DWIDTH1 0 -16
BITMAP 
FF
FF
FF
FF
C3
99
BD
BD
99
C3
FF
FF
FF
FF
FF
FF
ENDCHAR
STARTCHAR male
ENCODING 11
SWIDTH 501 0
DWIDTH 8 0
BBX 8 16 0 0
VVECTOR 4 16
SWIDTH1 0 -1002
DWIDTH1 0 -16
BITMAP 
00
00
1E
0E
1A
30
7C
C6
C6
C6
C6
7C
00
00
00
00
ENDCHAR
STARTCHAR female
ENCODING 12
SWIDTH 501 0
DWIDTH 8 0
BBX 8 16 0 0
VVECTOR 4 16
SWIDTH1 0 -1002
DWIDTH1 0 -16
BITMAP 
00
00
3C
66
66
66
66
3C
18
7E
18
18
00
00
00
00
ENDCHAR
STARTCHAR musicalnote
ENCODING 13
SWIDTH 501 0
DWIDTH 8 0
BBX 8 16 0 0
VVECTOR 4 16
SWIDTH1 0 -1002
DWIDTH1 0 -16
BITMAP 
00
00
7E
62
7E
60
60
60
60
60
E0
C0
00
00
00
00
ENDCHAR
STARTCHAR musicalnotedbl
ENCODING 14
SWIDTH 501 0
DWIDTH 8 0
BBX 8 16 0 0
VVECTOR 4 16
SWIDTH1 0 -1002
DWIDTH1 0 -16
BITMAP 
00
00
7F
63
7F
63
63
63
63
67
E6
C0
00
00
00
00
ENDCHAR
STARTCHAR sun
ENCODING 15
SWIDTH 501 0
DWIDTH 8 0
BBX 8 16 0 0
VVECTOR 4 16
SWIDTH1 0 -1002
DWIDTH1 0 -16
BITMAP 
00
00
18
18
DB
3C
E7
3C
DB
18
18
00
00
00
00
00
ENDCHAR
STARTCHAR triagrt
ENCODING 16
SWIDTH 501 0
DWIDTH 8 0
BBX 8 16 0 0
VVECTOR 4 16
SWIDTH1 0 -1002
DWIDTH1 0 -16
BITMAP 
00
00
40
60
70
7C
7F
7C
70
60
40
00
00
00
00
00
ENDCHAR
STARTCHAR triaglf
ENCODING 17
SWIDTH 501 0
DWIDTH 8 0
BBX 8 16 0 0
VVECTOR 4 16
SWIDTH1 0 -1002
DWIDTH1 0 -16
BITMAP 
00
00
01
03
07
1F
7F
1F
07
03
01
00
00
00
00
00
ENDCHAR
STARTCHAR SF110000
ENCODING 18
SWIDTH 501 0
DWIDTH 8 0
BBX 8 16 0 0
VVECTOR 4 16
SWIDTH1 0 -1002
DWIDTH1 0 -16
BITMAP 
18
18
18
18
18
18
18
18
18
18
18
18
18
18
18
18
ENDCHAR
STARTCHAR SF100000
ENCODING 19
SWIDTH 501 0
DWIDTH 8 0
BBX 8 16 0 0
VVECTOR 4 16
SWIDTH1 0 -1002
DWIDTH1 0 -16
BITMAP 
00
00
00
00
00
00
00
00
FF
00
00
00
00
00
00
00
ENDCHAR
STARTCHAR SF080000
ENCODING 20
SWIDTH 501 0
DWIDTH 8 0
BBX 8 16 0 0
VVECTOR 4 16
SWIDTH1 0 -1002
DWIDTH1 0 -16
BITMAP 
18
18
18
18
18
18
18
18
1F
18
18
18
18
18
18
18
ENDCHAR
STARTCHAR SF020000
ENCODING 21
SWIDTH 501 0
DWIDTH 8 0
BBX 8 16 0 0
VVECTOR 4 16
SWIDTH1 0 -1002
DWIDTH1 0 -16
BITMAP 
18
18
18
18
18
18
18
18
1F
00
00
00
00
00
00
00
ENDCHAR
STARTCHAR filledrect
ENCODING 22
SWIDTH 501 0
DWIDTH 8 0
BBX 8 16 0 0
VVECTOR 4 16
SWIDTH1 0 -1002
DWIDTH1 0 -16
BITMAP 
00
00
00
00
00
00
00
00
00
FE
FE
FE
00
00
00
00
ENDCHAR
STARTCHAR arrowupdnbse
ENCODING 23
SWIDTH 501 0
DWIDTH 8 0
BBX 8 16 0 0
VVECTOR 4 16
SWIDTH1 0 -1002
DWIDTH1 0 -16
BITMAP 
00
00
18
3C
7E
18
18
18
18
7E
3C
18
7E
00
00
00
ENDCHAR
STARTCHAR arrowup
ENCODING 24
SWIDTH 501 0
DWIDTH 8 0
BBX 8 16 0 0
VVECTOR 4 16
SWIDTH1 0 -1002
DWIDTH1 0 -16
BITMAP 
00
00
18
3C
7E
18
18
18
18
18
18
18
00
00
00
00
ENDCHAR
STARTCHAR arrowdown
ENCODING 25
SWIDTH 501 0
DWIDTH 8 0
BBX 8 16 0 0
VVECTOR 4 16
SWIDTH1 0 -1002
DWIDTH1 0 -16
BITMAP 
00
00
18
18
18
18
18
18
18
7E
3C
18
00
00
00
00
ENDCHAR
STARTCHAR arrowright
ENCODING 26
SWIDTH 501 0
DWIDTH 8 0
BBX 8 16 0 0
VVECTOR 4 16
SWIDTH1 0 -1002
DWIDTH1 0 -16
BITMAP 
00
00
00
00
18
0C
FE
0C
18
00
00
00
00
00
00
00
ENDCHAR
STARTCHAR arrowleft
ENCODING 27
SWIDTH 501 0
DWIDTH 8 0
BBX 8 16 0 0
VVECTOR 4 16
SWIDTH1 0 -1002
DWIDTH1 0 -16
BITMAP 
00
00
00
00
30
60
FE
60
30
00
00
00
00
00
00
00
ENDCHAR
STARTCHAR orthogonal
ENCODING 28
SWIDTH 501 0
DWIDTH 8 0
BBX 8 16 0 0
VVECTOR 4 16
SWIDTH1 0 -1002
DWIDTH1 0 -16
BITMAP 
00
00
18
3C
7E
18
18
18
18
7E
3C
18
00
00
00
00
ENDCHAR
STARTCHAR arrowboth
ENCODING 29
SWIDTH 501 0
DWIDTH 8 0
BBX 8 16 0 0
VVECTOR 4 16
SWIDTH1 0 -1002
DWIDTH1 0 -16
BITMAP 
00
00
00
00
24
66
FF
66
24
00
00
00
00
00
00
00
ENDCHAR
STARTCHAR triagup
ENCODING 30
SWIDTH 501 0
DWIDTH 8 0
BBX 8 16 0 0
VVECTOR 4 16
SWIDTH1 0 -1002
DWIDTH1 0 -16
BITMAP 
00
00
00
00
00
18
18
3C
3C
7E
7E
00
00
00
00
00
ENDCHAR
STARTCHAR triagdn
ENCODING 31
SWIDTH 501 0
DWIDTH 8 0
BBX 8 16 0 0
VVECTOR 4 16
SWIDTH1 0 -1002
DWIDTH1 0 -16
BITMAP 
00
00
00
00
7E
7E
3C
3C
18
18
00
00
00
00
00
00
ENDCHAR
STARTCHAR space
ENCODING 32
SWIDTH 501 0
DWIDTH 8 0
BBX 8 16 0 0
VVECTOR 4 16
SWIDTH1 0 -1002
DWIDTH1 0 -16
BITMAP 
00
00
00
00
00
00
00
00
00
00
00
00
00
00
00
00
ENDCHAR
STARTCHAR exclam
ENCODING 33
SWIDTH 501 0
DWIDTH 8 0
BBX 8 16 0 0
VVECTOR 4 16
SWIDTH1 0 -1002
DWIDTH1 0 -16
BITMAP 
00
08
1C
1C
1C
1C
08
08
08
08
00
00
08
1C
08
00
ENDCHAR
STARTCHAR quotedbl
ENCODING 34
SWIDTH 501 0
DWIDTH 8 0
BBX 8 16 0 0
VVECTOR 4 16
SWIDTH1 0 -1002
DWIDTH1 0 -16
BITMAP 
36
36
14
14
00
00
00
00
00
00
00
00
00
00
00
00
ENDCHAR
STARTCHAR numbersign
ENCODING 35
SWIDTH 501 0
DWIDTH 8 0
BBX 8 16 0 0
VVECTOR 4 16
SWIDTH1 0 -1002
DWIDTH1 0 -16
BITMAP 
00
04
24
24
26
3C
64
24
24
26
3C
64
24
24
20
00
ENDCHAR
STARTCHAR dollar
ENCODING 36
SWIDTH 501 0
DWIDTH 8 0
BBX 8 16 0 0
VVECTOR 4 16
SWIDTH1 0 -1002
DWIDTH1 0 -16
BITMAP 
08
08
1C
2A
49
48
28
1C
0A
09
09
49
2A
1C
08
08
ENDCHAR
STARTCHAR percent
ENCODING 37
SWIDTH 501 0
DWIDTH 8 0
BBX 8 16 0 0
VVECTOR 4 16
SWIDTH1 0 -1002
DWIDTH1 0 -16
BITMAP 
00
20
51
52
52
54
24
08
08
12
15
25
25
45
02
00
ENDCHAR
STARTCHAR ampersand
ENCODING 38
SWIDTH 501 0
DWIDTH 8 0
BBX 8 16 0 0
VVECTOR 4 16
SWIDTH1 0 -1002
DWIDTH1 0 -16
BITMAP 
00
3C
42
42
42
24
18
10
28
45
45
46
46
46
39
00
ENDCHAR
STARTCHAR quotesingle
ENCODING 39
SWIDTH 501 0
DWIDTH 8 0
BBX 8 16 0 0
VVECTOR 4 16
SWIDTH1 0 -1002
DWIDTH1 0 -16
BITMAP 
0C
0C
08
08
00
00
00
00
00
00
00
00
00
00
00
00
ENDCHAR
STARTCHAR parenleft
ENCODING 40
SWIDTH 501 0
DWIDTH 8 0
BBX 8 16 0 0
VVECTOR 4 16
SWIDTH1 0 -1002
DWIDTH1 0 -16
BITMAP 
02
04
08
08
08
10
10
10
10
10
10
08
08
08
04
02
ENDCHAR
STARTCHAR parenright
ENCODING 41
SWIDTH 501 0
DWIDTH 8 0
BBX 8 16 0 0
VVECTOR 4 16
SWIDTH1 0 -1002
DWIDTH1 0 -16
BITMAP 
20
10
08
08
08
04
04
04
04
04
04
08
08
08
10
20
ENDCHAR
STARTCHAR asterisk
ENCODING 42
SWIDTH 501 0
DWIDTH 8 0
BBX 8 16 0 0
VVECTOR 4 16
SWIDTH1 0 -1002
DWIDTH1 0 -16
BITMAP 
00
00
00
00
08
08
49
2A
14
2A
49
08
08
00
00
00
ENDCHAR
STARTCHAR plus
ENCODING 43
SWIDTH 501 0
DWIDTH 8 0
BBX 8 16 0 0
VVECTOR 4 16
SWIDTH1 0 -1002
DWIDTH1 0 -16
BITMAP 
00
00
00
00
08
08
08
7F
08
08
08
00
00
00
00
00
ENDCHAR
STARTCHAR comma
ENCODING 44
SWIDTH 501 0
DWIDTH 8 0
BBX 8 16 0 0
VVECTOR 4 16
SWIDTH1 0 -1002
DWIDTH1 0 -16
BITMAP 
00
00
00
00
00
00
00
00
00
00
00
00
30
30
10
20
ENDCHAR
STARTCHAR hyphen
ENCODING 45
SWIDTH 501 0
DWIDTH 8 0
BBX 8 16 0 0
VVECTOR 4 16
SWIDTH1 0 -1002
DWIDTH1 0 -16
BITMAP 
00
00
00
00
00
00
00
3E
00
00
00
00
00
00
00
00
ENDCHAR
STARTCHAR period
ENCODING 46
SWIDTH 501 0
DWIDTH 8 0
BBX 8 16 0 0
VVECTOR 4 16
SWIDTH1 0 -1002
DWIDTH1 0 -16
BITMAP 
00
00
00
00
00
00
00
00
00
00
00
00
00
30
30
00
ENDCHAR
STARTCHAR slash
ENCODING 47
SWIDTH 501 0
DWIDTH 8 0
BBX 8 16 0 0
VVECTOR 4 16
SWIDTH1 0 -1002
DWIDTH1 0 -16
BITMAP 
00
01
01
02
02
04
04
08
08
10
10
20
20
40
40
00
ENDCHAR
STARTCHAR zero
ENCODING 48
SWIDTH 501 0
DWIDTH 8 0
BBX 8 16 0 0
VVECTOR 4 16
SWIDTH1 0 -1002
DWIDTH1 0 -16
BITMAP 
00
1C
22
22
41
41
41
49
49
41
41
41
22
22
1C
00
ENDCHAR
STARTCHAR one
ENCODING 49
SWIDTH 501 0
DWIDTH 8 0
BBX 8 16 0 0
VVECTOR 4 16
SWIDTH1 0 -1002
DWIDTH1 0 -16
BITMAP 
00
08
18
28
08
08
08
08
08
08
08
08
08
08
3E
00
ENDCHAR
STARTCHAR two
ENCODING 50
SWIDTH 501 0
DWIDTH 8 0
BBX 8 16 0 0
VVECTOR 4 16
SWIDTH1 0 -1002
DWIDTH1 0 -16
BITMAP 
00
1C
22
41
41
41
02
02
04
08
10
20
20
40
7F
00
ENDCHAR
STARTCHAR three
ENCODING 51
SWIDTH 501 0
DWIDTH 8 0
BBX 8 16 0 0
VVECTOR 4 16
SWIDTH1 0 -1002
DWIDTH1 0 -16
BITMAP 
00
1C
22
41
01
01
02
1C
02
01
01
01
41
22
1C
00
ENDCHAR
STARTCHAR four
ENCODING 52
SWIDTH 501 0
DWIDTH 8 0
BBX 8 16 0 0
VVECTOR 4 16
SWIDTH1 0 -1002
DWIDTH1 0 -16
BITMAP 
00
04
0C
0C
14
14
14
24
24
44
44
7F
04
04
04
00
ENDCHAR
STARTCHAR five
ENCODING 53
SWIDTH 501 0
DWIDTH 8 0
BBX 8 16 0 0
VVECTOR 4 16
SWIDTH1 0 -1002
DWIDTH1 0 -16
BITMAP 
00
3F
20
20
20
20
2C
32
21
01
01
01
01
22
1C
00
ENDCHAR
STARTCHAR six
ENCODING 54
SWIDTH 501 0
DWIDTH 8 0
BBX 8 16 0 0
VVECTOR 4 16
SWIDTH1 0 -1002
DWIDTH1 0 -16
BITMAP 
00
1C
22
41
40
40
5C
62
41
41
41
41
41
22
1C
00
ENDCHAR
STARTCHAR seven
ENCODING 55
SWIDTH 501 0
DWIDTH 8 0
BBX 8 16 0 0
VVECTOR 4 16
SWIDTH1 0 -1002
DWIDTH1 0 -16
BITMAP 
00
7F
01
02
04
04
04
08
08
08
08
10
10
10
10
00
ENDCHAR
STARTCHAR eight
ENCODING 56
SWIDTH 501 0
DWIDTH 8 0
BBX 8 16 0 0
VVECTOR 4 16
SWIDTH1 0 -1002
DWIDTH1 0 -16
BITMAP 
00
1C
22
41
41
41
22
1C
22
41
41
41
41
22
1C
00
ENDCHAR
STARTCHAR nine
ENCODING 57
SWIDTH 501 0
DWIDTH 8 0
BBX 8 16 0 0
VVECTOR 4 16
SWIDTH1 0 -1002
DWIDTH1 0 -16
BITMAP 
00
1C
22
41
41
41
41
41
23
1D
01
01
41
22
1C
00
ENDCHAR
STARTCHAR colon
ENCODING 58
SWIDTH 501 0
DWIDTH 8 0
BBX 8 16 0 0
VVECTOR 4 16
SWIDTH1 0 -1002
DWIDTH1 0 -16
BITMAP 
00
00
00
00
18
18
00
00
00
00
18
18
00
00
00
00
ENDCHAR
STARTCHAR semicolon
ENCODING 59
SWIDTH 501 0
DWIDTH 8 0
BBX 8 16 0 0
VVECTOR 4 16
SWIDTH1 0 -1002
DWIDTH1 0 -16
BITMAP 
00
00
00
00
18
18
00
00
00
00
18
18
08
10
00
00
ENDCHAR
STARTCHAR less
ENCODING 60
SWIDTH 501 0
DWIDTH 8 0
BBX 8 16 0 0
VVECTOR 4 16
SWIDTH1 0 -1002
DWIDTH1 0 -16
BITMAP 
00
00
00
02
04
08
10
20
40
20
10
08
04
02
00
00
ENDCHAR
STARTCHAR equal
ENCODING 61
SWIDTH 501 0
DWIDTH 8 0
BBX 8 16 0 0
VVECTOR 4 16
SWIDTH1 0 -1002
DWIDTH1 0 -16
BITMAP 
00
00
00
00
00
00
3E
00
00
3E
00
00
00
00
00
00
ENDCHAR
STARTCHAR greater
ENCODING 62
SWIDTH 501 0
DWIDTH 8 0
BBX 8 16 0 0
VVECTOR 4 16
SWIDTH1 0 -1002
DWIDTH1 0 -16
BITMAP 
00
00
00
20
10
08
04
02
01
02
04
08
10
20
00
00
ENDCHAR
STARTCHAR question
ENCODING 63
SWIDTH 501 0
DWIDTH 8 0
BBX 8 16 0 0
VVECTOR 4 16
SWIDTH1 0 -1002
DWIDTH1 0 -16
BITMAP 
00
1C
22
41
41
02
04
08
08
08
00
00
08
08
08
00
ENDCHAR
STARTCHAR at
ENCODING 64
SWIDTH 501 0
DWIDTH 8 0
BBX 8 16 0 0
VVECTOR 4 16
SWIDTH1 0 -1002
DWIDTH1 0 -16
BITMAP 
00
1C
22
41
4D
55
55
55
55
55
55
4A
40
21
1E
00
ENDCHAR
STARTCHAR A
ENCODING 65
SWIDTH 501 0
DWIDTH 8 0
BBX 8 16 0 0
VVECTOR 4 16
SWIDTH1 0 -1002
DWIDTH1 0 -16
BITMAP 
00
08
14
22
41
41
41
41
7F
41
41
41
41
41
41
00
ENDCHAR
STARTCHAR B
ENCODING 66
SWIDTH 501 0
DWIDTH 8 0
BBX 8 16 0 0
VVECTOR 4 16
SWIDTH1 0 -1002
DWIDTH1 0 -16
BITMAP 
00
7C
42
41
41
41
42
7C
42
41
41
41
41
42
7C
00
ENDCHAR
STARTCHAR C
ENCODING 67
SWIDTH 501 0
DWIDTH 8 0
BBX 8 16 0 0
VVECTOR 4 16
SWIDTH1 0 -1002
DWIDTH1 0 -16
BITMAP 
00
1C
22
41
41
40
40
40
40
40
40
41
41
22
1C
00
ENDCHAR
STARTCHAR D
ENCODING 68
SWIDTH 501 0
DWIDTH 8 0
BBX 8 16 0 0
VVECTOR 4 16
SWIDTH1 0 -1002
DWIDTH1 0 -16
BITMAP 
00
7C
42
42
41
41
41
41
41
41
41
41
42
42
7C
00
ENDCHAR
STARTCHAR E
ENCODING 69
SWIDTH 501 0
DWIDTH 8 0
BBX 8 16 0 0
VVECTOR 4 16
SWIDTH1 0 -1002
DWIDTH1 0 -16
BITMAP 
00
7F
40
40
40
40
40
7E
40
40
40
40
40
40
7F
00
ENDCHAR
STARTCHAR F
ENCODING 70
SWIDTH 501 0
DWIDTH 8 0
BBX 8 16 0 0
VVECTOR 4 16
SWIDTH1 0 -1002
DWIDTH1 0 -16
BITMAP 
00
7F
40
40
40
40
40
7E
40
40
40
40
40
40
40
00
ENDCHAR
STARTCHAR G
ENCODING 71
SWIDTH 501 0
DWIDTH 8 0
BBX 8 16 0 0
VVECTOR 4 16
SWIDTH1 0 -1002
DWIDTH1 0 -16
BITMAP 
00
1C
22
41
40
40
40
40
4F
41
41
41
41
23
1D
00
ENDCHAR
STARTCHAR H
ENCODING 72
SWIDTH 501 0
DWIDTH 8 0
BBX 8 16 0 0
VVECTOR 4 16
SWIDTH1 0 -1002
DWIDTH1 0 -16
BITMAP 
00
41
41
41
41
41
41
7F
41
41
41
41
41
41
41
00
ENDCHAR
STARTCHAR I
ENCODING 73
SWIDTH 501 0
DWIDTH 8 0
BBX 8 16 0 0
VVECTOR 4 16
SWIDTH1 0 -1002
DWIDTH1 0 -16
BITMAP 
00
3E
08
08
08
08
08
08
08
08
08
08
08
08
3E
00
ENDCHAR
STARTCHAR J
ENCODING 74
SWIDTH 501 0
DWIDTH 8 0
BBX 8 16 0 0
VVECTOR 4 16
SWIDTH1 0 -1002
DWIDTH1 0 -16
BITMAP 
00
02
02
02
02
02
02
02
02
02
02
02
42
24
18
00
ENDCHAR
STARTCHAR K
ENCODING 75
SWIDTH 501 0
DWIDTH 8 0
BBX 8 16 0 0
VVECTOR 4 16
SWIDTH1 0 -1002
DWIDTH1 0 -16
BITMAP 
00
41
42
42
44
48
48
50
68
48
44
44
42
42
41
00
ENDCHAR
STARTCHAR L
ENCODING 76
SWIDTH 501 0
DWIDTH 8 0
BBX 8 16 0 0
VVECTOR 4 16
SWIDTH1 0 -1002
DWIDTH1 0 -16
BITMAP 
00
20
20
20
20
20
20
20
20
20
20
20
20
20
3F
00
ENDCHAR
STARTCHAR M
ENCODING 77
SWIDTH 501 0
DWIDTH 8 0
BBX 8 16 0 0
VVECTOR 4 16
SWIDTH1 0 -1002
DWIDTH1 0 -16
BITMAP 
00
41
41
63
63
55
55
55
49
49
41
41
41
41
41
00
ENDCHAR
STARTCHAR N
ENCODING 78
SWIDTH 501 0
DWIDTH 8 0
BBX 8 16 0 0
VVECTOR 4 16
SWIDTH1 0 -1002
DWIDTH1 0 -16
BITMAP 
00
41
41
61
61
51
51
49
49
45
45
43
43
41
41
00
ENDCHAR
STARTCHAR O
ENCODING 79
SWIDTH 501 0
DWIDTH 8 0
BBX 8 16 0 0
VVECTOR 4 16
SWIDTH1 0 -1002
DWIDTH1 0 -16
BITMAP 
00
1C
22
41
41
41
41
41
41
41
41
41
41
22
1C
00
ENDCHAR
STARTCHAR P
ENCODING 80
SWIDTH 501 0
DWIDTH 8 0
BBX 8 16 0 0
VVECTOR 4 16
SWIDTH1 0 -1002
DWIDTH1 0 -16
BITMAP 
00
7C
42
41
41
41
41
42
7C
40
40
40
40
40
40
00
ENDCHAR
STARTCHAR Q
ENCODING 81
SWIDTH 501 0
DWIDTH 8 0
BBX 8 16 0 0
VVECTOR 4 16
SWIDTH1 0 -1002
DWIDTH1 0 -16
BITMAP 
00
1C
22
41
41
41
41
41
41
41
41
49
45
22
1D
00
ENDCHAR
STARTCHAR R
ENCODING 82
SWIDTH 501 0
DWIDTH 8 0
BBX 8 16 0 0
VVECTOR 4 16
SWIDTH1 0 -1002
DWIDTH1 0 -16
BITMAP 
00
7C
42
41
41
41
41
42
7C
44
44
42
42
42
41
00
ENDCHAR
STARTCHAR S
ENCODING 83
SWIDTH 501 0
DWIDTH 8 0
BBX 8 16 0 0
VVECTOR 4 16
SWIDTH1 0 -1002
DWIDTH1 0 -16
BITMAP 
00
1C
22
41
41
40
20
18
04
02
01
41
41
22
1C
00
ENDCHAR
STARTCHAR T
ENCODING 84
SWIDTH 501 0
DWIDTH 8 0
BBX 8 16 0 0
VVECTOR 4 16
SWIDTH1 0 -1002
DWIDTH1 0 -16
BITMAP 
00
7F
08
08
08
08
08
08
08
08
08
08
08
08
08
00
ENDCHAR
STARTCHAR U
ENCODING 85
SWIDTH 501 0
DWIDTH 8 0
BBX 8 16 0 0
VVECTOR 4 16
SWIDTH1 0 -1002
DWIDTH1 0 -16
BITMAP 
00
41
41
41
41
41
41
41
41
41
41
41
41
22
1C
00
ENDCHAR
STARTCHAR V
ENCODING 86
SWIDTH 501 0
DWIDTH 8 0
BBX 8 16 0 0
VVECTOR 4 16
SWIDTH1 0 -1002
DWIDTH1 0 -16
BITMAP 
00
41
41
41
41
41
41
41
22
22
14
14
08
08
08
00
ENDCHAR
STARTCHAR W
ENCODING 87
SWIDTH 501 0
DWIDTH 8 0
BBX 8 16 0 0
VVECTOR 4 16
SWIDTH1 0 -1002
DWIDTH1 0 -16
BITMAP 
00
41
41
41
41
41
49
49
49
55
55
55
22
22
22
00
ENDCHAR
STARTCHAR X
ENCODING 88
SWIDTH 501 0
DWIDTH 8 0
BBX 8 16 0 0
VVECTOR 4 16
SWIDTH1 0 -1002
DWIDTH1 0 -16
BITMAP 
00
41
41
22
22
14
14
08
08
14
14
22
22
41
41
00
ENDCHAR
STARTCHAR Y
ENCODING 89
SWIDTH 501 0
DWIDTH 8 0
BBX 8 16 0 0
VVECTOR 4 16
SWIDTH1 0 -1002
DWIDTH1 0 -16
BITMAP 
00
41
41
41
41
41
22
14
08
08
08
08
08
08
08
00
ENDCHAR
STARTCHAR Z
ENCODING 90
SWIDTH 501 0
DWIDTH 8 0
BBX 8 16 0 0
VVECTOR 4 16
SWIDTH1 0 -1002
DWIDTH1 0 -16
BITMAP 
00
7F
01
02
02
04
04
08
08
10
10
20
20
40
7F
00
ENDCHAR
STARTCHAR bracketleft
ENCODING 91
SWIDTH 501 0
DWIDTH 8 0
BBX 8 16 0 0
VVECTOR 4 16
SWIDTH1 0 -1002
DWIDTH1 0 -16
BITMAP 
1E
10
10
10
10
10
10
10
10
10
10
10
10
10
10
1E
ENDCHAR
STARTCHAR yen
ENCODING 92
SWIDTH 501 0
DWIDTH 8 0
BBX 8 16 0 0
VVECTOR 4 16
SWIDTH1 0 -1002
DWIDTH1 0 -16
BITMAP 
00
41
22
22
14
14
08
7F
08
08
7F
08
08
08
08
00
ENDCHAR
STARTCHAR bracketright
ENCODING 93
SWIDTH 501 0
DWIDTH 8 0
BBX 8 16 0 0
VVECTOR 4 16
SWIDTH1 0 -1002
DWIDTH1 0 -16
BITMAP 
3C
04
04
04
04
04
04
04
04
04
04
04
04
04
04
3C
ENDCHAR
STARTCHAR asciicircum
ENCODING 94
SWIDTH 501 0
DWIDTH 8 0
BBX 8 16 0 0
VVECTOR 4 16
SWIDTH1 0 -1002
DWIDTH1 0 -16
BITMAP 
18
24
00
00
00
00
00
00
00
00
00
00
00
00
00
00
ENDCHAR
STARTCHAR underscore
ENCODING 95
SWIDTH 501 0
DWIDTH 8 0
BBX 8 16 0 0
VVECTOR 4 16
SWIDTH1 0 -1002
DWIDTH1 0 -16
BITMAP 
00
00
00
00
00
00
00
00
00
00
00
00
00
00
00
7F
ENDCHAR
STARTCHAR grave
ENCODING 96
SWIDTH 501 0
DWIDTH 8 0
BBX 8 16 0 0
VVECTOR 4 16
SWIDTH1 0 -1002
DWIDTH1 0 -16
BITMAP 
10
08
04
00
00
00
00
00
00
00
00
00
00
00
00
00
ENDCHAR
STARTCHAR a
ENCODING 97
SWIDTH 501 0
DWIDTH 8 0
BBX 8 16 0 0
VVECTOR 4 16
SWIDTH1 0 -1002
DWIDTH1 0 -16
BITMAP 
00
00
00
00
00
00
3C
42
02
0E
32
42
42
46
3B
00
ENDCHAR
STARTCHAR b
ENCODING 98
SWIDTH 501 0
DWIDTH 8 0
BBX 8 16 0 0
VVECTOR 4 16
SWIDTH1 0 -1002
DWIDTH1 0 -16
BITMAP 
00
20
20
20
20
20
2C
32
21
21
21
21
21
32
2C
00
ENDCHAR
STARTCHAR c
ENCODING 99
SWIDTH 501 0
DWIDTH 8 0
BBX 8 16 0 0
VVECTOR 4 16
SWIDTH1 0 -1002
DWIDTH1 0 -16
BITMAP 
00
00
00
00
00
00
1C
22
41
40
40
40
41
22
1C
00
ENDCHAR
STARTCHAR d
ENCODING 100
SWIDTH 501 0
DWIDTH 8 0
BBX 8 16 0 0
VVECTOR 4 16
SWIDTH1 0 -1002
DWIDTH1 0 -16
BITMAP 
00
02
02
02
02
02
1A
26
42
42
42
42
42
26
1A
00
ENDCHAR
STARTCHAR e
ENCODING 101
SWIDTH 501 0
DWIDTH 8 0
BBX 8 16 0 0
VVECTOR 4 16
SWIDTH1 0 -1002
DWIDTH1 0 -16
BITMAP 
00
00
00
00
00
00
1C
22
41
41
7F
40
40
21
1E
00
ENDCHAR
STARTCHAR f
ENCODING 102
SWIDTH 501 0
DWIDTH 8 0
BBX 8 16 0 0
VVECTOR 4 16
SWIDTH1 0 -1002
DWIDTH1 0 -16
BITMAP 
00
07
08
08
08
08
3F
08
08
08
08
08
08
08
08
00
ENDCHAR
STARTCHAR g
ENCODING 103
SWIDTH 501 0
DWIDTH 8 0
BBX 8 16 0 0
VVECTOR 4 16
SWIDTH1 0 -1002
DWIDTH1 0 -16
BITMAP 
00
00
00
00
00
00
1A
26
42
42
42
26
1A
42
24
18
ENDCHAR
STARTCHAR h
ENCODING 104
SWIDTH 501 0
DWIDTH 8 0
BBX 8 16 0 0
VVECTOR 4 16
SWIDTH1 0 -1002
DWIDTH1 0 -16
BITMAP 
00
20
20
20
20
20
2E
31
21
21
21
21
21
21
21
00
ENDCHAR
STARTCHAR i
ENCODING 105
SWIDTH 501 0
DWIDTH 8 0
BBX 8 16 0 0
VVECTOR 4 16
SWIDTH1 0 -1002
DWIDTH1 0 -16
BITMAP 
00
00
08
08
00
00
08
08
08
08
08
08
08
08
08
00
ENDCHAR
STARTCHAR j
ENCODING 106
SWIDTH 501 0
DWIDTH 8 0
BBX 8 16 0 0
VVECTOR 4 16
SWIDTH1 0 -1002
DWIDTH1 0 -16
BITMAP 
00
00
04
04
00
00
04
04
04
04
04
04
04
24
24
18
ENDCHAR
STARTCHAR k
ENCODING 107
SWIDTH 501 0
DWIDTH 8 0
BBX 8 16 0 0
VVECTOR 4 16
SWIDTH1 0 -1002
DWIDTH1 0 -16
BITMAP 
00
20
20
20
20
20
21
22
24
28
34
24
22
22
21
00
ENDCHAR
STARTCHAR l
ENCODING 108
SWIDTH 501 0
DWIDTH 8 0
BBX 8 16 0 0
VVECTOR 4 16
SWIDTH1 0 -1002
DWIDTH1 0 -16
BITMAP 
00
08
08
08
08
08
08
08
08
08
08
08
08
08
0C
00
ENDCHAR
STARTCHAR m
ENCODING 109
SWIDTH 501 0
DWIDTH 8 0
BBX 8 16 0 0
VVECTOR 4 16
SWIDTH1 0 -1002
DWIDTH1 0 -16
BITMAP 
00
00
00
00
00
00
52
6D
49
49
49
49
49
49
49
00
ENDCHAR
STARTCHAR n
ENCODING 110
SWIDTH 501 0
DWIDTH 8 0
BBX 8 16 0 0
VVECTOR 4 16
SWIDTH1 0 -1002
DWIDTH1 0 -16
BITMAP 
00
00
00
00
00
00
2E
31
21
21
21
21
21
21
21
00
ENDCHAR
STARTCHAR o
ENCODING 111
SWIDTH 501 0
DWIDTH 8 0
BBX 8 16 0 0
VVECTOR 4 16
SWIDTH1 0 -1002
DWIDTH1 0 -16
BITMAP 
00
00
00
00
00
00
1C
22
41
41
41
41
41
22
1C
00
ENDCHAR
STARTCHAR p
ENCODING 112
SWIDTH 501 0
DWIDTH 8 0
BBX 8 16 0 0
VVECTOR 4 16
SWIDTH1 0 -1002
DWIDTH1 0 -16
BITMAP 
00
00
00
00
00
00
2C
32
21
21
21
21
32
2C
20
20
ENDCHAR
STARTCHAR q
ENCODING 113
SWIDTH 501 0
DWIDTH 8 0
BBX 8 16 0 0
VVECTOR 4 16
SWIDTH1 0 -1002
DWIDTH1 0 -16
BITMAP 
00
00
00
00
00
00
1A
26
42
42
42
42
26
1A
02
02
ENDCHAR
STARTCHAR r
ENCODING 114
SWIDTH 501 0
DWIDTH 8 0
BBX 8 16 0 0
VVECTOR 4 16
SWIDTH1 0 -1002
DWIDTH1 0 -16
BITMAP 
00
00
00
00
00
00
17
18
10
10
10
10
10
10
10
00
ENDCHAR
STARTCHAR s
ENCODING 115
SWIDTH 501 0
DWIDTH 8 0
BBX 8 16 0 0
VVECTOR 4 16
SWIDTH1 0 -1002
DWIDTH1 0 -16
BITMAP 
00
00
00
00
00
00
1E
21
20
20
1E
01
01
21
1E
00
ENDCHAR
STARTCHAR t
ENCODING 116
SWIDTH 501 0
DWIDTH 8 0
BBX 8 16 0 0
VVECTOR 4 16
SWIDTH1 0 -1002
DWIDTH1 0 -16
BITMAP 
00
00
08
08
08
08
3F
08
08
08
08
08
08
08
07
00
ENDCHAR
STARTCHAR u
ENCODING 117
SWIDTH 501 0
DWIDTH 8 0
BBX 8 16 0 0
VVECTOR 4 16
SWIDTH1 0 -1002
DWIDTH1 0 -16
BITMAP 
00
00
00
00
00
00
42
42
42
42
42
42
42
46
3A
00
ENDCHAR
STARTCHAR v
ENCODING 118
SWIDTH 501 0
DWIDTH 8 0
BBX 8 16 0 0
VVECTOR 4 16
SWIDTH1 0 -1002
DWIDTH1 0 -16
BITMAP 
00
00
00
00
00
00
41
41
22
22
22
14
14
08
08
00
ENDCHAR
STARTCHAR w
ENCODING 119
SWIDTH 501 0
DWIDTH 8 0
BBX 8 16 0 0
VVECTOR 4 16
SWIDTH1 0 -1002
DWIDTH1 0 -16
BITMAP 
00
00
00
00
00
00
41
41
41
49
49
55
22
22
22
00
ENDCHAR
STARTCHAR x
ENCODING 120
SWIDTH 501 0
DWIDTH 8 0
BBX 8 16 0 0
VVECTOR 4 16
SWIDTH1 0 -1002
DWIDTH1 0 -16
BITMAP 
00
00
00
00
00
00
41
22
22
14
08
14
22
22
41
00
ENDCHAR
STARTCHAR y
ENCODING 121
SWIDTH 501 0
DWIDTH 8 0
BBX 8 16 0 0
VVECTOR 4 16
SWIDTH1 0 -1002
DWIDTH1 0 -16
BITMAP 
00
00
00
00
00
00
41
42
22
24
14
18
08
10
10
20
ENDCHAR
STARTCHAR z
ENCODING 122
SWIDTH 501 0
DWIDTH 8 0
BBX 8 16 0 0
VVECTOR 4 16
SWIDTH1 0 -1002
DWIDTH1 0 -16
BITMAP 
00
00
00
00
00
00
7F
01
02
04
08
10
20
40
7F
00
ENDCHAR
STARTCHAR braceleft
ENCODING 123
SWIDTH 501 0
DWIDTH 8 0
BBX 8 16 0 0
VVECTOR 4 16
SWIDTH1 0 -1002
DWIDTH1 0 -16
BITMAP 
06
08
08
08
08
08
08
10
10
08
08
08
08
08
08
06
ENDCHAR
STARTCHAR bar
ENCODING 124
SWIDTH 501 0
DWIDTH 8 0
BBX 8 16 0 0
VVECTOR 4 16
SWIDTH1 0 -1002
DWIDTH1 0 -16
BITMAP 
08
08
08
08
08
08
08
08
08
08
08
08
08
08
08
08
ENDCHAR
STARTCHAR braceright
ENCODING 125
SWIDTH 501 0
DWIDTH 8 0
BBX 8 16 0 0
VVECTOR 4 16
SWIDTH1 0 -1002
DWIDTH1 0 -16
BITMAP 
30
08
08
08
08
08
08
04
04
08
08
08
08
08
08
30
ENDCHAR
STARTCHAR uni203E
ENCODING 126
SWIDTH 501 0
DWIDTH 8 0
BBX 8 16 0 0
VVECTOR 4 16
SWIDTH1 0 -1002
DWIDTH1 0 -16
BITMAP 
7F
00
00
00
00
00
00
00
00
00
00
00
00
00
00
00
ENDCHAR
STARTCHAR char7F
ENCODING 127
SWIDTH 501 0
DWIDTH 8 0
BBX 8 16 0 0
VVECTOR 4 16
SWIDTH1 0 -1002
DWIDTH1 0 -16
BITMAP 
00
00
00
00
00
00
00
00
00
00
00
00
00
00
00
00
ENDCHAR
STARTCHAR char80
ENCODING 128
SWIDTH 501 0
DWIDTH 8 0
BBX 8 16 0 0
VVECTOR 4 16
SWIDTH1 0 -1002
DWIDTH1 0 -16
BITMAP 
00
00
00
00
00
00
00
00
00
00
00
00
00
00
00
00
ENDCHAR
STARTCHAR char81
ENCODING 129
SWIDTH 501 0
DWIDTH 8 0
BBX 8 16 0 0
VVECTOR 4 16
SWIDTH1 0 -1002
DWIDTH1 0 -16
BITMAP 
00
00
00
00
00
00
00
00
00
00
00
00
00
00
00
00
ENDCHAR
STARTCHAR char82
ENCODING 130
SWIDTH 501 0
DWIDTH 8 0
BBX 8 16 0 0
VVECTOR 4 16
SWIDTH1 0 -1002
DWIDTH1 0 -16
BITMAP 
00
00
00
00
00
00
00
00
00
00
00
00
00
00
00
00
ENDCHAR
STARTCHAR char83
ENCODING 131
SWIDTH 501 0
DWIDTH 8 0
BBX 8 16 0 0
VVECTOR 4 16
SWIDTH1 0 -1002
DWIDTH1 0 -16
BITMAP 
00
00
00
00
00
00
00
00
00
00
00
00
00
00
00
00
ENDCHAR
STARTCHAR char84
ENCODING 132
SWIDTH 501 0
DWIDTH 8 0
BBX 8 16 0 0
VVECTOR 4 16
SWIDTH1 0 -1002
DWIDTH1 0 -16
BITMAP 
00
00
00
00
00
00
00
00
00
00
00
00
00
00
00
00
ENDCHAR
STARTCHAR char85
ENCODING 133
SWIDTH 501 0
DWIDTH 8 0
BBX 8 16 0 0
VVECTOR 4 16
SWIDTH1 0 -1002
DWIDTH1 0 -16
BITMAP 
00
00
00
00
00
00
00
00
00
00
00
00
00
00
00
00
ENDCHAR
STARTCHAR char86
ENCODING 134
SWIDTH 501 0
DWIDTH 8 0
BBX 8 16 0 0
VVECTOR 4 16
SWIDTH1 0 -1002
DWIDTH1 0 -16
BITMAP 
00
00
00
00
00
00
00
00
00
00
00
00
00
00
00
00
ENDCHAR
STARTCHAR char87
ENCODING 135
SWIDTH 501 0
DWIDTH 8 0
BBX 8 16 0 0
VVECTOR 4 16
SWIDTH1 0 -1002
DWIDTH1 0 -16
BITMAP 
00
00
00
00
00
00
00
00
00
00
00
00
00
00
00
00
ENDCHAR
STARTCHAR char88
ENCODING 136
SWIDTH 501 0
DWIDTH 8 0
BBX 8 16 0 0
VVECTOR 4 16
SWIDTH1 0 -1002
DWIDTH1 0 -16
BITMAP 
00
00
00
00
00
00
00
00
00
00
00
00
00
00
00
00
ENDCHAR
STARTCHAR char89
ENCODING 137
SWIDTH 501 0
DWIDTH 8 0
BBX 8 16 0 0
VVECTOR 4 16
SWIDTH1 0 -1002
DWIDTH1 0 -16
BITMAP 
00
00
00
00
00
00
00
00
00
00
00
00
00
00
00
00
ENDCHAR
STARTCHAR char8A
ENCODING 138
SWIDTH 501 0
DWIDTH 8 0
BBX 8 16 0 0
VVECTOR 4 16
SWIDTH1 0 -1002
DWIDTH1 0 -16
BITMAP 
00
00
00
00
00
00
00
00
00
00
00
00
00
00
00
00
ENDCHAR
STARTCHAR char8B
ENCODING 139
SWIDTH 501 0
DWIDTH 8 0
BBX 8 16 0 0
VVECTOR 4 16
SWIDTH1 0 -1002
DWIDTH1 0 -16
BITMAP 
00
00
00
00
00
00
00
00
00
00
00
00
00
00
00
00
ENDCHAR
STARTCHAR char8C
ENCODING 140
SWIDTH 501 0
DWIDTH 8 0
BBX 8 16 0 0
VVECTOR 4 16
SWIDTH1 0 -1002
DWIDTH1 0 -16
BITMAP 
00
00
00
00
00
00
00
00
00
00
00
00
00
00
00
00
ENDCHAR
STARTCHAR char8D
ENCODING 141
SWIDTH 501 0
DWIDTH 8 0
BBX 8 16 0 0
VVECTOR 4 16
SWIDTH1 0 -1002
DWIDTH1 0 -16
BITMAP 
00
00
00
00
00
00
00
00
00
00
00
00
00
00
00
00
ENDCHAR
STARTCHAR char8E
ENCODING 142
SWIDTH 501 0
DWIDTH 8 0
BBX 8 16 0 0
VVECTOR 4 16
SWIDTH1 0 -1002
DWIDTH1 0 -16
BITMAP 
00
00
00
00
00
00
00
00
00
00
00
00
00
00
00
00
ENDCHAR
STARTCHAR char8F
ENCODING 143
SWIDTH 501 0
DWIDTH 8 0
BBX 8 16 0 0
VVECTOR 4 16
SWIDTH1 0 -1002
DWIDTH1 0 -16
BITMAP 
00
00
00
00
00
00
00
00
00
00
00
00
00
00
00
00
ENDCHAR
STARTCHAR char90
ENCODING 144
SWIDTH 501 0
DWIDTH 8 0
BBX 8 16 0 0
VVECTOR 4 16
SWIDTH1 0 -1002
DWIDTH1 0 -16
BITMAP 
00
00
00
00
00
00
00
00
00
00
00
00
00
00
00
00
ENDCHAR
STARTCHAR char91
ENCODING 145
SWIDTH 501 0
DWIDTH 8 0
BBX 8 16 0 0
VVECTOR 4 16
SWIDTH1 0 -1002
DWIDTH1 0 -16
BITMAP 
00
00
00
00
00
00
00
00
00
00
00
00
00
00
00
00
ENDCHAR
STARTCHAR char92
ENCODING 146
SWIDTH 501 0
DWIDTH 8 0
BBX 8 16 0 0
VVECTOR 4 16
SWIDTH1 0 -1002
DWIDTH1 0 -16
BITMAP 
00
00
00
00
00
00
00
00
00
00
00
00
00
00
00
00
ENDCHAR
STARTCHAR char93
ENCODING 147
SWIDTH 501 0
DWIDTH 8 0
BBX 8 16 0 0
VVECTOR 4 16
SWIDTH1 0 -1002
DWIDTH1 0 -16
BITMAP 
00
00
00
00
00
00
00
00
00
00
00
00
00
00
00
00
ENDCHAR
STARTCHAR char94
ENCODING 148
SWIDTH 501 0
DWIDTH 8 0
BBX 8 16 0 0
VVECTOR 4 16
SWIDTH1 0 -1002
DWIDTH1 0 -16
BITMAP 
00
00
00
00
00
00
00
00
00
00
00
00
00
00
00
00
ENDCHAR
STARTCHAR char95
ENCODING 149
SWIDTH 501 0
DWIDTH 8 0
BBX 8 16 0 0
VVECTOR 4 16
SWIDTH1 0 -1002
DWIDTH1 0 -16
BITMAP 
00
00
00
00
00
00
00
00
00
00
00
00
00
00
00
00
ENDCHAR
STARTCHAR char96
ENCODING 150
SWIDTH 501 0
DWIDTH 8 0
BBX 8 16 0 0
VVECTOR 4 16
SWIDTH1 0 -1002
DWIDTH1 0 -16
BITMAP 
00
00
00
00
00
00
00
00
00
00
00
00
00
00
00
00
ENDCHAR
STARTCHAR char97
ENCODING 151
SWIDTH 501 0
DWIDTH 8 0
BBX 8 16 0 0
VVECTOR 4 16
SWIDTH1 0 -1002
DWIDTH1 0 -16
BITMAP 
00
00
00
00
00
00
00
00
00
00
00
00
00
00
00
00
ENDCHAR
STARTCHAR char98
ENCODING 152
SWIDTH 501 0
DWIDTH 8 0
BBX 8 16 0 0
VVECTOR 4 16
SWIDTH1 0 -1002
DWIDTH1 0 -16
BITMAP 
00
00
00
00
00
00
00
00
00
00
00
00
00
00
00
00
ENDCHAR
STARTCHAR char99
ENCODING 153
SWIDTH 501 0
DWIDTH 8 0
BBX 8 16 0 0
VVECTOR 4 16
SWIDTH1 0 -1002
DWIDTH1 0 -16
BITMAP 
00
00
00
00
00
00
00
00
00
00
00
00
00
00
00
00
ENDCHAR
STARTCHAR char9A
ENCODING 154
SWIDTH 501 0
DWIDTH 8 0
BBX 8 16 0 0
VVECTOR 4 16
SWIDTH1 0 -1002
DWIDTH1 0 -16
BITMAP 
00
00
00
00
00
00
00
00
00
00
00
00
00
00
00
00
ENDCHAR
STARTCHAR char9B
ENCODING 155
SWIDTH 501 0
DWIDTH 8 0
BBX 8 16 0 0
VVECTOR 4 16
SWIDTH1 0 -1002
DWIDTH1 0 -16
BITMAP 
00
00
00
00
00
00
00
00
00
00
00
00
00
00
00
00
ENDCHAR
STARTCHAR char9C
ENCODING 156
SWIDTH 501 0
DWIDTH 8 0
BBX 8 16 0 0
VVECTOR 4 16
SWIDTH1 0 -1002
DWIDTH1 0 -16
BITMAP 
00
00
00
00
00
00
00
00
00
00
00
00
00
00
00
00
ENDCHAR
STARTCHAR char9D
ENCODING 157
SWIDTH 501 0
DWIDTH 8 0
BBX 8 16 0 0
VVECTOR 4 16
SWIDTH1 0 -1002
DWIDTH1 0 -16
BITMAP 
00
00
00
00
00
00
00
00
00
00
00
00
00
00
00
00
ENDCHAR
STARTCHAR char9E
ENCODING 158
SWIDTH 501 0
DWIDTH 8 0
BBX 8 16 0 0
VVECTOR 4 16
SWIDTH1 0 -1002
DWIDTH1 0 -16
BITMAP 
00
00
00
00
00
00
00
00
00
00
00
00
00
00
00
00
ENDCHAR
STARTCHAR char9F
ENCODING 159
SWIDTH 501 0
DWIDTH 8 0
BBX 8 16 0 0
VVECTOR 4 16
SWIDTH1 0 -1002
DWIDTH1 0 -16
BITMAP 
00
00
00
00
00
00
00
00
00
00
00
00
00
00
00
00
ENDCHAR
STARTCHAR charA0
ENCODING 160
SWIDTH 501 0
DWIDTH 8 0
BBX 8 16 0 0
VVECTOR 4 16
SWIDTH1 0 -1002
DWIDTH1 0 -16
BITMAP 
00
00
00
00
00
00
00
00
00
00
00
00
00
00
00
00
ENDCHAR
STARTCHAR uni3002
ENCODING 161
SWIDTH 501 0
DWIDTH 8 0
BBX 8 16 0 0
VVECTOR 4 16
SWIDTH1 0 -1002
DWIDTH1 0 -16
BITMAP 
00
00
00
00
00
00
00
00
00
00
00
00
30
48
48
30
ENDCHAR
STARTCHAR uni300C
ENCODING 162
SWIDTH 501 0
DWIDTH 8 0
BBX 8 16 0 0
VVECTOR 4 16
SWIDTH1 0 -1002
DWIDTH1 0 -16
BITMAP 
7E
40
40
40
40
40
40
40
40
40
00
00
00
00
00
00
ENDCHAR
STARTCHAR uni300D
ENCODING 163
SWIDTH 501 0
DWIDTH 8 0
BBX 8 16 0 0
VVECTOR 4 16
SWIDTH1 0 -1002
DWIDTH1 0 -16
BITMAP 
00
00
00
00
00
00
01
01
01
01
01
01
01
01
01
3F
ENDCHAR
STARTCHAR uni3001
ENCODING 164
SWIDTH 501 0
DWIDTH 8 0
BBX 8 16 0 0
VVECTOR 4 16
SWIDTH1 0 -1002
DWIDTH1 0 -16
BITMAP 
00
00
00
00
00
00
00
00
00
00
00
00
40
30
18
10
ENDCHAR
STARTCHAR uni30FB
ENCODING 165
SWIDTH 501 0
DWIDTH 8 0
BBX 8 16 0 0
VVECTOR 4 16
SWIDTH1 0 -1002
DWIDTH1 0 -16
BITMAP 
00
00
00
00
00
00
00
18
18
00
00
00
00
00
00
00
ENDCHAR
STARTCHAR uni30F2
ENCODING 166
SWIDTH 501 0
DWIDTH 8 0
BBX 8 16 0 0
VVECTOR 4 16
SWIDTH1 0 -1002
DWIDTH1 0 -16
BITMAP 
00
00
7E
02
02
02
7E
02
02
04
04
04
08
10
20
00
ENDCHAR
STARTCHAR uni30A1
ENCODING 167
SWIDTH 501 0
DWIDTH 8 0
BBX 8 16 0 0
VVECTOR 4 16
SWIDTH1 0 -1002
DWIDTH1 0 -16
BITMAP 
00
00
00
00
00
7E
02
02
12
0C
08
08
10
10
20
00
ENDCHAR
STARTCHAR uni30A3
ENCODING 168
SWIDTH 501 0
DWIDTH 8 0
BBX 8 16 0 0
VVECTOR 4 16
SWIDTH1 0 -1002
DWIDTH1 0 -16
BITMAP 
00
00
00
04
06
04
08
08
18
28
48
08
08
08
08
00
ENDCHAR
STARTCHAR uni30A5
ENCODING 169
SWIDTH 501 0
DWIDTH 8 0
BBX 8 16 0 0
VVECTOR 4 16
SWIDTH1 0 -1002
DWIDTH1 0 -16
BITMAP 
00
00
00
08
08
08
3E
22
22
22
02
04
04
08
10
00
ENDCHAR
STARTCHAR uni30A7
ENCODING 170
SWIDTH 501 0
DWIDTH 8 0
BBX 8 16 0 0
VVECTOR 4 16
SWIDTH1 0 -1002
DWIDTH1 0 -16
BITMAP 
00
00
00
00
00
00
3E
08
08
08
08
08
7F
00
00
00
ENDCHAR
STARTCHAR uni30A9
ENCODING 171
SWIDTH 501 0
DWIDTH 8 0
BBX 8 16 0 0
VVECTOR 4 16
SWIDTH1 0 -1002
DWIDTH1 0 -16
BITMAP 
00
00
00
04
04
04
7F
0C
0C
14
14
24
4C
04
00
00
ENDCHAR
STARTCHAR uni30E3
ENCODING 172
SWIDTH 501 0
DWIDTH 8 0
BBX 8 16 0 0
VVECTOR 4 16
SWIDTH1 0 -1002
DWIDTH1 0 -16
BITMAP 
00
00
00
00
20
22
2E
72
12
14
10
10
08
08
08
00
ENDCHAR
STARTCHAR uni30E5
ENCODING 173
SWIDTH 501 0
DWIDTH 8 0
BBX 8 16 0 0
VVECTOR 4 16
SWIDTH1 0 -1002
DWIDTH1 0 -16
BITMAP 
00
00
00
00
00
00
3C
04
04
04
08
08
7F
00
00
00
ENDCHAR
STARTCHAR uni30E7
ENCODING 174
SWIDTH 501 0
DWIDTH 8 0
BBX 8 16 0 0
VVECTOR 4 16
SWIDTH1 0 -1002
DWIDTH1 0 -16
BITMAP 
00
00
00
00
00
00
7E
02
02
3E
02
02
7E
00
00
00
ENDCHAR
STARTCHAR uni30C3
ENCODING 175
SWIDTH 501 0
DWIDTH 8 0
BBX 8 16 0 0
VVECTOR 4 16
SWIDTH1 0 -1002
DWIDTH1 0 -16
BITMAP 
00
00
00
00
00
12
53
4A
2A
22
02
04
04
08
10
00
ENDCHAR
STARTCHAR uni30FC
ENCODING 176
SWIDTH 501 0
DWIDTH 8 0
BBX 8 16 0 0
VVECTOR 4 16
SWIDTH1 0 -1002
DWIDTH1 0 -16
BITMAP 
00
00
00
00
00
00
02
7F
00
00
00
00
00
00
00
00
ENDCHAR
STARTCHAR uni30A2
ENCODING 177
SWIDTH 501 0
DWIDTH 8 0
BBX 8 16 0 0
VVECTOR 4 16
SWIDTH1 0 -1002
DWIDTH1 0 -16
BITMAP 
00
00
7E
02
02
02
1A
0C
08
08
08
08
10
10
20
00
ENDCHAR
STARTCHAR uni30A4
ENCODING 178
SWIDTH 501 0
DWIDTH 8 0
BBX 8 16 0 0
VVECTOR 4 16
SWIDTH1 0 -1002
DWIDTH1 0 -16
BITMAP 
00
02
03
02
04
04
0C
0C
14
24
44
04
04
04
04
00
ENDCHAR
STARTCHAR uni30A6
ENCODING 179
SWIDTH 501 0
DWIDTH 8 0
BBX 8 16 0 0
VVECTOR 4 16
SWIDTH1 0 -1002
DWIDTH1 0 -16
BITMAP 
08
08
08
3E
22
22
22
22
22
02
04
04
04
08
10
00
ENDCHAR
STARTCHAR uni30A8
ENCODING 180
SWIDTH 501 0
DWIDTH 8 0
BBX 8 16 0 0
VVECTOR 4 16
SWIDTH1 0 -1002
DWIDTH1 0 -16
BITMAP 
00
00
04
3E
08
08
08
08
08
08
08
0A
7F
00
00
00
ENDCHAR
STARTCHAR uni30AA
ENCODING 181
SWIDTH 501 0
DWIDTH 8 0
BBX 8 16 0 0
VVECTOR 4 16
SWIDTH1 0 -1002
DWIDTH1 0 -16
BITMAP 
04
04
04
04
7F
0C
0C
14
14
14
24
24
44
1C
04
00
ENDCHAR
STARTCHAR uni30AB
ENCODING 182
SWIDTH 501 0
DWIDTH 8 0
BBX 8 16 0 0
VVECTOR 4 16
SWIDTH1 0 -1002
DWIDTH1 0 -16
BITMAP 
08
08
08
08
7F
09
09
09
09
09
11
11
11
26
42
00
ENDCHAR
STARTCHAR uni30AD
ENCODING 183
SWIDTH 501 0
DWIDTH 8 0
BBX 8 16 0 0
VVECTOR 4 16
SWIDTH1 0 -1002
DWIDTH1 0 -16
BITMAP 
00
10
10
14
1E
70
08
0A
0F
78
08
04
04
04
04
00
ENDCHAR
STARTCHAR uni30AF
ENCODING 184
SWIDTH 501 0
DWIDTH 8 0
BBX 8 16 0 0
VVECTOR 4 16
SWIDTH1 0 -1002
DWIDTH1 0 -16
BITMAP 
00
10
10
1E
12
22
22
22
44
04
04
08
08
10
20
00
ENDCHAR
STARTCHAR uni30B1
ENCODING 185
SWIDTH 501 0
DWIDTH 8 0
BBX 8 16 0 0
VVECTOR 4 16
SWIDTH1 0 -1002
DWIDTH1 0 -16
BITMAP 
10
10
10
10
1F
24
24
24
44
04
08
08
08
10
20
00
ENDCHAR
STARTCHAR uni30B3
ENCODING 186
SWIDTH 501 0
DWIDTH 8 0
BBX 8 16 0 0
VVECTOR 4 16
SWIDTH1 0 -1002
DWIDTH1 0 -16
BITMAP 
00
00
02
7F
02
02
02
02
02
02
02
02
7F
00
00
00
ENDCHAR
STARTCHAR uni30B5
ENCODING 187
SWIDTH 501 0
DWIDTH 8 0
BBX 8 16 0 0
VVECTOR 4 16
SWIDTH1 0 -1002
DWIDTH1 0 -16
BITMAP 
00
22
22
22
22
7F
22
22
22
22
02
04
04
08
10
00
ENDCHAR
STARTCHAR uni30B7
ENCODING 188
SWIDTH 501 0
DWIDTH 8 0
BBX 8 16 0 0
VVECTOR 4 16
SWIDTH1 0 -1002
DWIDTH1 0 -16
BITMAP 
00
40
31
11
01
41
31
12
02
02
04
04
08
30
20
00
ENDCHAR
STARTCHAR uni30B9
ENCODING 189
SWIDTH 501 0
DWIDTH 8 0
BBX 8 16 0 0
VVECTOR 4 16
SWIDTH1 0 -1002
DWIDTH1 0 -16
BITMAP 
00
00
3E
02
02
02
02
04
04
04
0A
0A
11
21
41
00
ENDCHAR
STARTCHAR uni30BB
ENCODING 190
SWIDTH 501 0
DWIDTH 8 0
BBX 8 16 0 0
VVECTOR 4 16
SWIDTH1 0 -1002
DWIDTH1 0 -16
BITMAP 
00
10
10
12
1E
72
12
12
14
14
10
10
10
0F
00
00
ENDCHAR
STARTCHAR uni30BD
ENCODING 191
SWIDTH 501 0
DWIDTH 8 0
BBX 8 16 0 0
VVECTOR 4 16
SWIDTH1 0 -1002
DWIDTH1 0 -16
BITMAP 
00
02
43
22
22
32
12
02
02
04
04
04
08
10
20
00
ENDCHAR
STARTCHAR uni30BF
ENCODING 192
SWIDTH 501 0
DWIDTH 8 0
BBX 8 16 0 0
VVECTOR 4 16
SWIDTH1 0 -1002
DWIDTH1 0 -16
BITMAP 
00
10
10
1E
12
22
32
2A
44
04
04
08
08
10
20
00
ENDCHAR
STARTCHAR uni30C1
ENCODING 193
SWIDTH 501 0
DWIDTH 8 0
BBX 8 16 0 0
VVECTOR 4 16
SWIDTH1 0 -1002
DWIDTH1 0 -16
BITMAP 
00
04
0E
38
08
08
0A
7F
08
08
08
10
10
20
40
00
ENDCHAR
STARTCHAR uni30C4
ENCODING 194
SWIDTH 501 0
DWIDTH 8 0
BBX 8 16 0 0
VVECTOR 4 16
SWIDTH1 0 -1002
DWIDTH1 0 -16
BITMAP 
00
13
51
51
49
29
29
21
01
02
02
02
04
08
10
00
ENDCHAR
STARTCHAR uni30C6
ENCODING 195
SWIDTH 501 0
DWIDTH 8 0
BBX 8 16 0 0
VVECTOR 4 16
SWIDTH1 0 -1002
DWIDTH1 0 -16
BITMAP 
00
04
3E
00
00
02
7F
08
08
08
08
08
10
10
20
00
ENDCHAR
STARTCHAR uni30C8
ENCODING 196
SWIDTH 501 0
DWIDTH 8 0
BBX 8 16 0 0
VVECTOR 4 16
SWIDTH1 0 -1002
DWIDTH1 0 -16
BITMAP 
00
10
10
10
10
10
18
16
13
11
10
10
10
10
10
00
ENDCHAR
STARTCHAR uni30CA
ENCODING 197
SWIDTH 501 0
DWIDTH 8 0
BBX 8 16 0 0
VVECTOR 4 16
SWIDTH1 0 -1002
DWIDTH1 0 -16
BITMAP 
00
08
08
08
08
0A
7F
08
08
08
08
10
10
20
40
00
ENDCHAR
STARTCHAR uni30CB
ENCODING 198
SWIDTH 501 0
DWIDTH 8 0
BBX 8 16 0 0
VVECTOR 4 16
SWIDTH1 0 -1002
DWIDTH1 0 -16
BITMAP 
00
00
04
3E
00
00
00
00
00
00
00
02
7F
00
00
00
ENDCHAR
STARTCHAR uni30CC
ENCODING 199
SWIDTH 501 0
DWIDTH 8 0
BBX 8 16 0 0
VVECTOR 4 16
SWIDTH1 0 -1002
DWIDTH1 0 -16
BITMAP 
00
00
7E
02
02
02
22
14
0C
06
0B
09
10
20
40
00
ENDCHAR
STARTCHAR uni30CD
ENCODING 200
SWIDTH 501 0
DWIDTH 8 0
BBX 8 16 0 0
VVECTOR 4 16
SWIDTH1 0 -1002
DWIDTH1 0 -16
BITMAP 
10
08
00
04
3E
04
04
08
0C
1A
2B
49
08
08
08
00
ENDCHAR
STARTCHAR uni30CE
ENCODING 201
SWIDTH 501 0
DWIDTH 8 0
BBX 8 16 0 0
VVECTOR 4 16
SWIDTH1 0 -1002
DWIDTH1 0 -16
BITMAP 
00
02
03
02
02
02
02
04
04
04
08
08
10
20
40
00
ENDCHAR
STARTCHAR uni30CF
ENCODING 202
SWIDTH 501 0
DWIDTH 8 0
BBX 8 16 0 0
VVECTOR 4 16
SWIDTH1 0 -1002
DWIDTH1 0 -16
BITMAP 
00
00
14
14
12
12
12
12
11
21
21
21
21
41
00
00
ENDCHAR
STARTCHAR uni30D2
ENCODING 203
SWIDTH 501 0
DWIDTH 8 0
BBX 8 16 0 0
VVECTOR 4 16
SWIDTH1 0 -1002
DWIDTH1 0 -16
BITMAP 
00
20
20
20
22
27
38
20
20
20
20
20
20
1F
00
00
ENDCHAR
STARTCHAR uni30D5
ENCODING 204
SWIDTH 501 0
DWIDTH 8 0
BBX 8 16 0 0
VVECTOR 4 16
SWIDTH1 0 -1002
DWIDTH1 0 -16
BITMAP 
00
00
7E
02
02
02
02
02
02
04
04
04
08
10
20
00
ENDCHAR
STARTCHAR uni30D8
ENCODING 205
SWIDTH 501 0
DWIDTH 8 0
BBX 8 16 0 0
VVECTOR 4 16
SWIDTH1 0 -1002
DWIDTH1 0 -16
BITMAP 
00
00
10
18
28
28
24
44
04
02
02
02
01
01
00
00
ENDCHAR
STARTCHAR uni30DB
ENCODING 206
SWIDTH 501 0
DWIDTH 8 0
BBX 8 16 0 0
VVECTOR 4 16
SWIDTH1 0 -1002
DWIDTH1 0 -16
BITMAP 
00
08
08
0A
7F
08
08
2A
2A
2A
49
49
49
18
08
00
ENDCHAR
STARTCHAR uni30DE
ENCODING 207
SWIDTH 501 0
DWIDTH 8 0
BBX 8 16 0 0
VVECTOR 4 16
SWIDTH1 0 -1002
DWIDTH1 0 -16
BITMAP 
00
00
7E
02
02
02
02
04
44
24
18
18
08
0C
08
00
ENDCHAR
STARTCHAR uni30DF
ENCODING 208
SWIDTH 501 0
DWIDTH 8 0
BBX 8 16 0 0
VVECTOR 4 16
SWIDTH1 0 -1002
DWIDTH1 0 -16
BITMAP 
00
00
30
0E
03
00
30
0C
06
00
60
18
06
03
00
00
ENDCHAR
STARTCHAR uni30E0
ENCODING 209
SWIDTH 501 0
DWIDTH 8 0
BBX 8 16 0 0
VVECTOR 4 16
SWIDTH1 0 -1002
DWIDTH1 0 -16
BITMAP 
00
08
0C
08
08
08
08
10
10
12
12
12
17
79
01
00
ENDCHAR
STARTCHAR uni30E1
ENCODING 210
SWIDTH 501 0
DWIDTH 8 0
BBX 8 16 0 0
VVECTOR 4 16
SWIDTH1 0 -1002
DWIDTH1 0 -16
BITMAP 
00
02
03
02
02
22
12
0C
04
06
0B
09
10
20
40
00
ENDCHAR
STARTCHAR uni30E2
ENCODING 211
SWIDTH 501 0
DWIDTH 8 0
BBX 8 16 0 0
VVECTOR 4 16
SWIDTH1 0 -1002
DWIDTH1 0 -16
BITMAP 
00
04
7E
10
10
10
12
7F
10
10
10
10
10
0F
00
00
ENDCHAR
STARTCHAR uni30E4
ENCODING 212
SWIDTH 501 0
DWIDTH 8 0
BBX 8 16 0 0
VVECTOR 4 16
SWIDTH1 0 -1002
DWIDTH1 0 -16
BITMAP 
00
60
20
22
1E
72
12
14
14
10
08
08
08
08
08
00
ENDCHAR
STARTCHAR uni30E6
ENCODING 213
SWIDTH 501 0
DWIDTH 8 0
BBX 8 16 0 0
VVECTOR 4 16
SWIDTH1 0 -1002
DWIDTH1 0 -16
BITMAP 
00
00
00
3C
04
04
04
04
04
08
08
08
7F
00
00
00
ENDCHAR
STARTCHAR uni30E8
ENCODING 214
SWIDTH 501 0
DWIDTH 8 0
BBX 8 16 0 0
VVECTOR 4 16
SWIDTH1 0 -1002
DWIDTH1 0 -16
BITMAP 
00
00
00
7E
02
02
02
3E
02
02
02
02
7E
02
00
00
ENDCHAR
STARTCHAR uni30E9
ENCODING 215
SWIDTH 501 0
DWIDTH 8 0
BBX 8 16 0 0
VVECTOR 4 16
SWIDTH1 0 -1002
DWIDTH1 0 -16
BITMAP 
00
04
3E
00
00
00
7E
02
02
02
04
04
08
10
20
00
ENDCHAR
STARTCHAR uni30EA
ENCODING 216
SWIDTH 501 0
DWIDTH 8 0
BBX 8 16 0 0
VVECTOR 4 16
SWIDTH1 0 -1002
DWIDTH1 0 -16
BITMAP 
00
02
22
22
22
22
22
22
22
02
04
04
08
10
20
00
ENDCHAR
STARTCHAR uni30EB
ENCODING 217
SWIDTH 501 0
DWIDTH 8 0
BBX 8 16 0 0
VVECTOR 4 16
SWIDTH1 0 -1002
DWIDTH1 0 -16
BITMAP 
00
08
08
08
28
28
29
29
29
29
2A
2A
4A
4C
48
00
ENDCHAR
STARTCHAR uni30EC
ENCODING 218
SWIDTH 501 0
DWIDTH 8 0
BBX 8 16 0 0
VVECTOR 4 16
SWIDTH1 0 -1002
DWIDTH1 0 -16
BITMAP 
00
20
20
20
20
21
21
21
22
22
24
24
28
30
20
00
ENDCHAR
STARTCHAR uni30ED
ENCODING 219
SWIDTH 501 0
DWIDTH 8 0
BBX 8 16 0 0
VVECTOR 4 16
SWIDTH1 0 -1002
DWIDTH1 0 -16
BITMAP 
00
00
00
7E
42
42
42
42
42
42
42
42
7E
00
00
00
ENDCHAR
STARTCHAR uni30EF
ENCODING 220
SWIDTH 501 0
DWIDTH 8 0
BBX 8 16 0 0
VVECTOR 4 16
SWIDTH1 0 -1002
DWIDTH1 0 -16
BITMAP 
00
02
7F
42
42
42
42
02
02
02
04
04
04
08
10
00
ENDCHAR
STARTCHAR uni30F3
ENCODING 221
SWIDTH 501 0
DWIDTH 8 0
BBX 8 16 0 0
VVECTOR 4 16
SWIDTH1 0 -1002
DWIDTH1 0 -16
BITMAP 
00
00
40
21
31
11
01
02
02
02
04
04
08
30
20
00
ENDCHAR
STARTCHAR uni309B
ENCODING 222
SWIDTH 501 0
DWIDTH 8 0
BBX 8 16 0 0
VVECTOR 4 16
SWIDTH1 0 -1002
DWIDTH1 0 -16
BITMAP 
00
08
46
32
10
00
00
00
00
00
00
00
00
00
00
00
ENDCHAR
STARTCHAR uni309C
ENCODING 223
SWIDTH 501 0
DWIDTH 8 0
BBX 8 16 0 0
VVECTOR 4 16
SWIDTH1 0 -1002
DWIDTH1 0 -16
BITMAP 
00
00
30
48
48
30
00
00
00
00
00
00
00
00
00
00
ENDCHAR
STARTCHAR charE0
ENCODING 224
SWIDTH 501 0
DWIDTH 8 0
BBX 8 16 0 0
VVECTOR 4 16
SWIDTH1 0 -1002
DWIDTH1 0 -16
BITMAP 
00
00
00
00
00
00
00
00
00
00
00
00
00
00
00
00
ENDCHAR
STARTCHAR charE1
ENCODING 225
SWIDTH 501 0
DWIDTH 8 0
BBX 8 16 0 0
VVECTOR 4 16
SWIDTH1 0 -1002
DWIDTH1 0 -16
BITMAP 
00
00
00
00
00
00
00
00
00
00
00
00
00
00
00
00
ENDCHAR
STARTCHAR charE2
ENCODING 226
SWIDTH 501 0
DWIDTH 8 0
BBX 8 16 0 0
VVECTOR 4 16
SWIDTH1 0 -1002
DWIDTH1 0 -16
BITMAP 
00
00
00
00
00
00
00
00
00
00
00
00
00
00
00
00
ENDCHAR
STARTCHAR charE3
ENCODING 227
SWIDTH 501 0
DWIDTH 8 0
BBX 8 16 0 0
VVECTOR 4 16
SWIDTH1 0 -1002
DWIDTH1 0 -16
BITMAP 
00
00
00
00
00
00
00
00
00
00
00
00
00
00
00
00
ENDCHAR
STARTCHAR charE4
ENCODING 228
SWIDTH 501 0
DWIDTH 8 0
BBX 8 16 0 0
VVECTOR 4 16
SWIDTH1 0 -1002
DWIDTH1 0 -16
BITMAP 
00
00
00
00
00
00
00
00
00
00
00
00
00
00
00
00
ENDCHAR
STARTCHAR charE5
ENCODING 229
SWIDTH 501 0
DWIDTH 8 0
BBX 8 16 0 0
VVECTOR 4 16
SWIDTH1 0 -1002
DWIDTH1 0 -16
BITMAP 
00
00
00
00
00
00
00
00
00
00
00
00
00
00
00
00
ENDCHAR
STARTCHAR charE6
ENCODING 230
SWIDTH 501 0
DWIDTH 8 0
BBX 8 16 0 0
VVECTOR 4 16
SWIDTH1 0 -1002
DWIDTH1 0 -16
BITMAP 
00
00
00
00
00
00
00
00
00
00
00
00
00
00
00
00
ENDCHAR
STARTCHAR charE7
ENCODING 231
SWIDTH 501 0
DWIDTH 8 0
BBX 8 16 0 0
VVECTOR 4 16
SWIDTH1 0 -1002
DWIDTH1 0 -16
BITMAP 
00
00
00
00
00
00
00
00
00
00
00
00
00
00
00
00
ENDCHAR
STARTCHAR charE8
ENCODING 232
SWIDTH 501 0
DWIDTH 8 0
BBX 8 16 0 0
VVECTOR 4 16
SWIDTH1 0 -1002
DWIDTH1 0 -16
BITMAP 
00
00
00
00
00
00
00
00
00
00
00
00
00
00
00
00
ENDCHAR
STARTCHAR charE9
ENCODING 233
SWIDTH 501 0
DWIDTH 8 0
BBX 8 16 0 0
VVECTOR 4 16
SWIDTH1 0 -1002
DWIDTH1 0 -16
BITMAP 
00
00
00
00
00
00
00
00
00
00
00
00
00
00
00
00
ENDCHAR
STARTCHAR charEA
ENCODING 234
SWIDTH 501 0
DWIDTH 8 0
BBX 8 16 0 0
VVECTOR 4 16
SWIDTH1 0 -1002
DWIDTH1 0 -16
BITMAP 
00
00
00
00
00
00
00
00
00
00
00
00
00
00
00
00
ENDCHAR
STARTCHAR charEB
ENCODING 235
SWIDTH 501 0
DWIDTH 8 0
BBX 8 16 0 0
VVECTOR 4 16
SWIDTH1 0 -1002
DWIDTH1 0 -16
BITMAP 
00
00
00
00
00
00
00
00
00
00
00
00
00
00
00
00
ENDCHAR
STARTCHAR charEC
ENCODING 236
SWIDTH 501 0
DWIDTH 8 0
BBX 8 16 0 0
VVECTOR 4 16
SWIDTH1 0 -1002
DWIDTH1 0 -16
BITMAP 
00
00
00
00
00
00
00
00
00
00
00
00
00
00
00
00
ENDCHAR
STARTCHAR charED
ENCODING 237
SWIDTH 501 0
DWIDTH 8 0
BBX 8 16 0 0
VVECTOR 4 16
SWIDTH1 0 -1002
DWIDTH1 0 -16
BITMAP 
00
00
00
00
00
00
00
00
00
00
00
00
00
00
00
00
ENDCHAR
STARTCHAR charEE
ENCODING 238
SWIDTH 501 0
DWIDTH 8 0
BBX 8 16 0 0
VVECTOR 4 16
SWIDTH1 0 -1002
DWIDTH1 0 -16
BITMAP 
00
00
00
00
00
00
00
00
00
00
00
00
00
00
00
00
ENDCHAR
STARTCHAR charEF
ENCODING 239
SWIDTH 501 0
DWIDTH 8 0
BBX 8 16 0 0
VVECTOR 4 16
SWIDTH1 0 -1002
DWIDTH1 0 -16
BITMAP 
00
00
00
00
00
00
00
00
00
00
00
00
00
00
00
00
ENDCHAR
STARTCHAR charF0
ENCODING 240
SWIDTH 501 0
DWIDTH 8 0
BBX 8 16 0 0
VVECTOR 4 16
SWIDTH1 0 -1002
DWIDTH1 0 -16
BITMAP 
00
00
00
00
00
00
00
00
00
00
00
00
00
00
00
00
ENDCHAR
STARTCHAR charF1
ENCODING 241
SWIDTH 501 0
DWIDTH 8 0
BBX 8 16 0 0
VVECTOR 4 16
SWIDTH1 0 -1002
DWIDTH1 0 -16
BITMAP 
00
00
00
00
00
00
00
00
00
00
00
00
00
00
00
00
ENDCHAR
STARTCHAR charF2
ENCODING 242
SWIDTH 501 0
DWIDTH 8 0
BBX 8 16 0 0
VVECTOR 4 16
SWIDTH1 0 -1002
DWIDTH1 0 -16
BITMAP 
00
00
00
00
00
00
00
00
00
00
00
00
00
00
00
00
ENDCHAR
STARTCHAR charF3
ENCODING 243
SWIDTH 501 0
DWIDTH 8 0
BBX 8 16 0 0
VVECTOR 4 16
SWIDTH1 0 -1002
DWIDTH1 0 -16
BITMAP 
00
00
00
00
00
00
00
00
00
00
00
00
00
00
00
00
ENDCHAR
STARTCHAR charF4
ENCODING 244
SWIDTH 501 0
DWIDTH 8 0
BBX 8 16 0 0
VVECTOR 4 16
SWIDTH1 0 -1002
DWIDTH1 0 -16
BITMAP 
00
00
00
00
00
00
00
00
00
00
00
00
00
00
00
00
ENDCHAR
STARTCHAR charF5
ENCODING 245
SWIDTH 501 0
DWIDTH 8 0
BBX 8 16 0 0
VVECTOR 4 16
SWIDTH1 0 -1002
DWIDTH1 0 -16
BITMAP 
00
00
00
00
00
00
00
00
00
00
00
00
00
00
00
00
ENDCHAR
STARTCHAR charF6
ENCODING 246
SWIDTH 501 0
DWIDTH 8 0
BBX 8 16 0 0
VVECTOR 4 16
SWIDTH1 0 -1002
DWIDTH1 0 -16
BITMAP 
00
00
00
00
00
00
00
00
00
00
00
00
00
00
00
00
ENDCHAR
STARTCHAR charF7
ENCODING 247
SWIDTH 501 0
DWIDTH 8 0
BBX 8 16 0 0
VVECTOR 4 16
SWIDTH1 0 -1002
DWIDTH1 0 -16
BITMAP 
00
00
00
00
00
00
00
00
00
00
00
00
00
00
00
00
ENDCHAR
STARTCHAR charF8
ENCODING 248
SWIDTH 501 0
DWIDTH 8 0
BBX 8 16 0 0
VVECTOR 4 16
SWIDTH1 0 -1002
DWIDTH1 0 -16
BITMAP 
00
00
00
00
00
00
00
00
00
00
00
00
00
00
00
00
ENDCHAR
STARTCHAR charF9
ENCODING 249
SWIDTH 501 0
DWIDTH 8 0
BBX 8 16 0 0
VVECTOR 4 16
SWIDTH1 0 -1002
DWIDTH1 0 -16
BITMAP 
00
00
00
00
00
00
00
00
00
00
00
00
00
00
00
00
ENDCHAR
STARTCHAR charFA
ENCODING 250
SWIDTH 501 0
DWIDTH 8 0
BBX 8 16 0 0
VVECTOR 4 16
SWIDTH1 0 -1002
DWIDTH1 0 -16
BITMAP 
00
00
00
00
00
00
00
00
00
00
00
00
00
00
00
00
ENDCHAR
STARTCHAR charFB
ENCODING 251
SWIDTH 501 0
DWIDTH 8 0
BBX 8 16 0 0
VVECTOR 4 16
SWIDTH1 0 -1002
DWIDTH1 0 -16
BITMAP 
00
00
00
00
00
00
00
00
00
00
00
00
00
00
00
00
ENDCHAR
STARTCHAR charFC
ENCODING 252
SWIDTH 501 0
DWIDTH 8 0
BBX 8 16 0 0
VVECTOR 4 16
SWIDTH1 0 -1002
DWIDTH1 0 -16
BITMAP 
00
00
00
00
00
00
00
00
00
00
00
00
00
00
00
00
ENDCHAR
STARTCHAR periodcentered
ENCODING 253
SWIDTH 501 0
DWIDTH 8 0
BBX 8 16 0 0
VVECTOR 4 16
SWIDTH1 0 -1002
DWIDTH1 0 -16
BITMAP 
00
00
00
00
00
00
00
18
18
00
00
00
00
00
00
00
ENDCHAR
STARTCHAR filledbox
ENCODING 254
SWIDTH 501 0
DWIDTH 8 0
BBX 8 16 0 0
VVECTOR 4 16
SWIDTH1 0 -1002
DWIDTH1 0 -16
BITMAP 
00
00
00
00
3C
3C
3C
3C
3C
3C
3C
00
00
00
00
00
ENDCHAR
STARTCHAR uni00A0
ENCODING 255
SWIDTH 501 0
DWIDTH 8 0
BBX 8 16 0 0
VVECTOR 4 16
SWIDTH1 0 -1002
DWIDTH1 0 -16
BITMAP 
00
00
00
00
00
00
00
00
00
00
00
00
00
00
00
00
ENDCHAR
ENDFONT
